<svg xmlns="http://www.w3.org/2000/svg" width="40" height="40" fill="none" viewBox="0 0 40 40">
    <path fill="#fff" fill-rule="evenodd" d="M28.813 28.865C26.553 31.112 23.439 32.5 20 32.5c-6.904 0-12.5-5.596-12.5-12.5S13.096 7.5 20 7.5c3.439 0 6.553 1.388 8.813 3.635l5.303-5.303C30.5 2.228 25.51 0 20 0 8.954 0 0 8.954 0 20s8.954 20 20 20c5.51 0 10.499-2.228 14.116-5.832l-5.303-5.303z" clip-rule="evenodd"/>
    <path fill="#fff" fill-rule="evenodd" d="M37.098 9.618L26.716 20l10.382 10.382C38.939 27.355 40 23.802 40 20c0-3.802-1.06-7.356-2.902-10.382z" clip-rule="evenodd"/>
</svg>
