<svg width="32" height="32" viewBox="0 0 32 32" fill="none" xmlns="http://www.w3.org/2000/svg">
<path fill-rule="evenodd" clip-rule="evenodd" d="M16 32C24.8366 32 32 24.8366 32 16C32 7.16344 24.8366 0 16 0C7.16344 0 0 7.16344 0 16C0 24.8366 7.16344 32 16 32ZM11 22C14.3137 22 17 19.3137 17 16C17 12.6863 14.3137 10 11 10C7.68629 10 5 12.6863 5 16C5 19.3137 7.68629 22 11 22ZM21 22C22.6569 22 24 19.3137 24 16C24 12.6863 22.6569 10 21 10C19.3431 10 18 12.6863 18 16C18 19.3137 19.3431 22 21 22ZM27 16C27 18.7614 26.5523 21 26 21C25.4477 21 25 18.7614 25 16C25 13.2386 25.4477 11 26 11C26.5523 11 27 13.2386 27 16Z" fill="white"/>
</svg>
