<svg width="32" height="32" viewBox="0 0 32 32" fill="none" xmlns="http://www.w3.org/2000/svg">
<path fill-rule="evenodd" clip-rule="evenodd" d="M32 16C32 24.8366 24.8366 32 16 32C7.16344 32 0 24.8366 0 16C0 7.16344 7.16344 0 16 0C24.8366 0 32 7.16344 32 16ZM13.3482 6.625C8.90982 6.625 5.3125 9.62366 5.3125 13.3214C5.3125 15.4536 6.51518 17.3446 8.3808 18.5688L7.32143 20.6875L10.2076 19.4513C10.8263 19.671 11.4692 19.8518 12.1563 19.9362C12.0625 19.5277 12.0089 19.1085 12.0089 18.6786C12.0089 14.9862 15.6129 11.9821 20.0446 11.9821C20.4504 11.9821 20.8469 12.0156 21.2379 12.0638C20.5308 8.96741 17.2696 6.625 13.3482 6.625ZM10.6696 11.6473C10.1152 11.6473 9.66518 11.1973 9.66518 10.6429C9.66518 10.0884 10.1152 9.63839 10.6696 9.63839C11.2241 9.63839 11.6741 10.0884 11.6741 10.6429C11.6741 11.1973 11.2241 11.6473 10.6696 11.6473ZM16.0268 11.6473C15.4723 11.6473 15.0223 11.1973 15.0223 10.6429C15.0223 10.0884 15.4723 9.63839 16.0268 9.63839C16.5813 9.63839 17.0313 10.0884 17.0313 10.6429C17.0313 11.1973 16.5813 11.6473 16.0268 11.6473ZM20.0449 13.3214C23.7426 13.3214 26.7413 15.72 26.7413 18.6785C26.7413 20.3915 25.7181 21.8995 24.1538 22.8799L25.402 25.375L21.7926 23.8281C21.2315 23.95 20.6529 24.0357 20.0449 24.0357C16.3471 24.0357 13.3484 21.637 13.3484 18.6785C13.3484 15.72 16.3471 13.3214 20.0449 13.3214ZM17.0315 17.3392C17.0315 17.8937 17.4815 18.3437 18.0359 18.3437C18.5904 18.3437 19.0404 17.8937 19.0404 17.3392C19.0404 16.7848 18.5904 16.3348 18.0359 16.3348C17.4815 16.3348 17.0315 16.7848 17.0315 17.3392ZM21.0493 17.3392C21.0493 17.8937 21.4993 18.3437 22.0538 18.3437C22.6083 18.3437 23.0583 17.8937 23.0583 17.3392C23.0583 16.7848 22.6083 16.3348 22.0538 16.3348C21.4993 16.3348 21.0493 16.7848 21.0493 17.3392Z" fill="white"/>
</svg>
