<svg xmlns="http://www.w3.org/2000/svg" width="183" height="24" viewBox="0 0 183 24">
    <g fill="none" fill-rule="evenodd">
        <g>
            <g>
                <path fill="#FFF" fill-rule="nonzero" d="M36.181 18.082c1.065 0 2.13-.278 3.196-.833V13.76c-.63.767-1.178 1.284-1.645 1.55-.482.274-1.038.411-1.668.411-.987 0-1.8-.344-2.437-1.033-.63-.689-.945-1.57-.945-2.642 0-1.049.327-1.922.98-2.618.653-.697 1.473-1.045 2.46-1.045.63 0 1.179.14 1.645.422.474.274 1.01.78 1.61 1.515V6.81C38.38 6.27 37.324 6 36.204 6c-1.741 0-3.21.587-4.408 1.761C30.599 8.935 30 10.376 30 12.082c0 1.707.59 3.135 1.773 4.286 1.181 1.143 2.65 1.714 4.408 1.714zm12.914 0c1.718 0 3.168-.575 4.35-1.726 1.174-1.158 1.76-2.595 1.76-4.309 0-1.699-.582-3.131-1.749-4.297C52.274 6.583 50.836 6 49.141 6c-1.687 0-3.118.58-4.292 1.738s-1.76 2.563-1.76 4.215c0 1.753.575 3.21 1.725 4.368 1.151 1.174 2.578 1.761 4.28 1.761zm.046-2.36c-1.018 0-1.839-.336-2.46-1.01-.607-.665-.91-1.57-.91-2.712 0-1.065.31-1.933.933-2.607.622-.673 1.434-1.01 2.437-1.01 1.019 0 1.839.337 2.461 1.01.614.666.921 1.554.921 2.666 0 1.111-.307 2-.921 2.665-.614.665-1.435.998-2.46.998zm13.182 2.031v-5.518c0-1.425.179-2.423.536-2.994.366-.58.984-.87 1.855-.87.8 0 1.353.22 1.656.658.31.43.466 1.21.466 2.337v6.387h2.636v-7.01c0-1.612-.319-2.774-.956-3.487C67.777 6.42 66.746 6 65.426 6c-1.152 0-2.186.458-3.103 1.374V6.317h-2.636v11.436h2.636zm16.132.787l5.901-12.223h-2.95l-2.927 6.423-2.94-6.423h-2.938l5.854 12.223zm14.057-.458c.59 0 1.139-.062 1.644-.188.505-.125.976-.323 1.411-.593.436-.27.844-.614 1.225-1.033.38-.419.742-.922 1.084-1.509l-2.215-1.244c-.537.845-1.015 1.424-1.435 1.737-.428.314-.968.47-1.621.47-.84 0-1.528-.274-2.064-.822-.537-.556-.84-1.303-.91-2.242h8.14l.012-.623c0-1.886-.482-3.362-1.446-4.426C95.365 6.536 94.043 6 92.372 6c-1.656 0-2.986.552-3.989 1.656-.995 1.119-1.493 2.583-1.493 4.391 0 1.824.514 3.288 1.54 4.391 1.026 1.096 2.387 1.644 4.082 1.644zm2.565-7.585h-5.27c.085-.329.209-.622.372-.88.164-.259.36-.48.59-.664.229-.184.483-.325.763-.423.28-.098.58-.146.898-.146 1.4 0 2.282.704 2.647 2.113zm9.893 7.256v-5.93c0-2.175.716-3.263 2.146-3.263.475 0 .96.18 1.458.54l1.201-2.419c-.754-.454-1.477-.681-2.169-.681-.52 0-.972.098-1.353.294-.373.187-.8.536-1.283 1.045V6.317h-2.624v11.436h2.624zM118.444 24c1.796 0 3.207-.595 4.233-1.785.544-.618.91-1.358 1.096-2.219.063-.313.111-.675.146-1.086.035-.411.053-.887.053-1.427V6.317h-2.624v1.292C120.399 6.536 119.21 6 117.779 6c-1.633 0-2.947.618-3.942 1.855-.925 1.167-1.388 2.583-1.388 4.25 0 1.715.498 3.144 1.493 4.286.988 1.128 2.255 1.691 3.802 1.691 1.36 0 2.562-.536 3.604-1.608v1.596c0 2.372-.96 3.558-2.88 3.558-1.043 0-1.836-.356-2.38-1.068-.233-.306-.4-.74-.502-1.304h-2.635c.155 1.495.738 2.666 1.75 3.511.979.822 2.227 1.233 3.743 1.233zm-.175-8.278c-1.003 0-1.788-.364-2.356-1.092-.52-.665-.781-1.518-.781-2.56 0-1.056.26-1.917.781-2.583.575-.743 1.36-1.115 2.356-1.115.933 0 1.699.34 2.297 1.021.591.666.887 1.554.887 2.666 0 1.04-.269 1.894-.805 2.56-.583.735-1.376 1.103-2.38 1.103zm15.806 2.36c.59 0 1.139-.062 1.644-.188.505-.125.976-.323 1.411-.593.436-.27.844-.614 1.225-1.033.38-.419.742-.922 1.084-1.509l-2.216-1.244c-.536.845-1.014 1.424-1.434 1.737-.428.314-.968.47-1.621.47-.84 0-1.528-.274-2.064-.822-.537-.556-.84-1.303-.91-2.242h8.14l.012-.623c0-1.886-.482-3.362-1.446-4.426C136.928 6.536 135.606 6 133.935 6c-1.656 0-2.986.552-3.989 1.656-.995 1.119-1.493 2.583-1.493 4.391 0 1.824.513 3.288 1.54 4.391 1.026 1.096 2.387 1.644 4.082 1.644zm2.565-7.585h-5.271c.085-.329.21-.622.373-.88.163-.259.36-.48.59-.664.228-.184.483-.325.763-.423.28-.098.58-.146.898-.146 1.4 0 2.282.704 2.647 2.113zm9.905 7.256v-5.518c0-1.425.179-2.423.536-2.994.366-.58.984-.87 1.855-.87.8 0 1.353.22 1.656.658.31.43.466 1.21.466 2.337v6.387h2.636v-7.01c0-1.612-.319-2.774-.956-3.487-.739-.837-1.77-1.256-3.09-1.256-1.152 0-2.186.458-3.103 1.374V6.317h-2.636v11.436h2.636zm17.812.33c1.065 0 2.13-.279 3.195-.834V13.76c-.63.767-1.178 1.284-1.644 1.55-.482.274-1.038.411-1.668.411-.987 0-1.8-.344-2.437-1.033-.63-.689-.945-1.57-.945-2.642 0-1.049.327-1.922.98-2.618.653-.697 1.473-1.045 2.46-1.045.63 0 1.178.14 1.645.422.474.274 1.01.78 1.61 1.515V6.81C166.556 6.27 165.5 6 164.38 6c-1.742 0-3.211.587-4.408 1.761-1.198 1.174-1.796 2.615-1.796 4.321 0 1.707.59 3.135 1.772 4.286 1.182 1.143 2.652 1.714 4.409 1.714zm12.528 0c.591 0 1.14-.063 1.645-.189.505-.125.975-.323 1.41-.593.436-.27.844-.614 1.225-1.033.381-.419.743-.922 1.085-1.509l-2.216-1.244c-.536.845-1.014 1.424-1.434 1.737-.428.314-.968.47-1.621.47-.84 0-1.528-.274-2.065-.822-.536-.556-.84-1.303-.91-2.242h8.141l.012-.623c0-1.886-.482-3.362-1.446-4.426C179.739 6.536 178.417 6 176.745 6c-1.656 0-2.985.552-3.988 1.656-.995 1.119-1.493 2.583-1.493 4.391 0 1.824.513 3.288 1.54 4.391 1.026 1.096 2.386 1.644 4.081 1.644zm2.566-7.586h-5.271c.085-.329.21-.622.373-.88.163-.259.36-.48.589-.664.23-.184.484-.325.764-.423.28-.098.579-.146.898-.146 1.4 0 2.282.704 2.647 2.113z" transform="translate(-80 -156) translate(80 156)"/>
                <g>
                    <g>
                        <path fill="#E2223B" d="M12 0c3.306 0 6.299 1.337 8.47 3.499L17.286 6.68C15.931 5.333 14.063 4.5 12 4.5c-4.142 0-7.5 3.358-7.5 7.5 0 4.142 3.358 7.5 7.5 7.5 2.063 0 3.931-.833 5.287-2.18L20.47 20.5C18.3 22.663 15.306 24 12 24 5.373 24 0 18.627 0 12S5.373 0 12 0z" transform="translate(-80 -156) translate(80 156)"/>
                        <path fill="#FFF" fill-rule="nonzero" d="M22.259 5.77C23.364 7.588 24 9.72 24 12c0 2.28-.636 4.412-1.74 6.228L16.03 12z" transform="translate(-80 -156) translate(80 156)"/>
                    </g>
                </g>
            </g>
        </g>
    </g>
</svg>
