<svg xmlns="http://www.w3.org/2000/svg" width="64" height="64" viewBox="0 0 64 64">
    <defs>
        <filter id="etr4vd5t3a">
            <feColorMatrix in="SourceGraphic" values="0 0 0 0 0.211765 0 0 0 0 0.086275 0 0 0 0 0.721569 0 0 0 1.000000 0"/>
        </filter>
    </defs>
    <g fill="none" fill-rule="evenodd">
        <g>
            <g>
                <g>
                    <g transform="translate(-619 -394) translate(595 370) translate(24 24) translate(22 21)">
                        <ellipse cx="21.021" cy="21.333" fill="#FFF" rx="21.021" ry="21.333"/>
                        <ellipse cx="21.021" cy="21.333" fill="#FFF" stroke="#D7D7D7" rx="20.521" ry="20.833"/>
                        <g>
                            <g>
                                <g>
                                    <path fill="#E2223B" d="M10.51 0c2.896 0 5.518 1.188 7.419 3.11L15.142 5.94C13.954 4.74 12.318 4 10.51 4c-3.628 0-6.57 2.985-6.57 6.667s2.942 6.666 6.57 6.666c1.807 0 3.443-.74 4.63-1.938l2.788 2.828c-1.901 1.922-4.523 3.11-7.418 3.11C4.706 21.333 0 16.558 0 10.667S4.706 0 10.51 0z" transform="translate(10.51 10.667)"/>
                                    <path fill="#372D88" fill-rule="nonzero" d="M19.496 5.13c.968 1.614 1.525 3.509 1.525 5.537 0 2.027-.557 3.923-1.525 5.537l-5.456-5.537z" transform="translate(10.51 10.667)"/>
                                </g>
                            </g>
                        </g>
                    </g>
                    <g>
                        <path fill="#FFF" stroke="#D7D7D7" d="M25.981 1.123C20.486-.267 14.956.735 10.457 3.48c-4.502 2.746-7.971 7.235-9.342 12.815-1.372 5.582-.384 11.199 2.321 15.77 2.704 4.567 7.124 8.088 12.62 9.48 5.497 1.39 11.028.388 15.528-2.355 4.503-2.745 7.973-7.234 9.344-12.814 1.371-5.583.383-11.201-2.323-15.772-2.705-4.568-7.126-8.09-12.624-9.48z" transform="translate(-619 -394) translate(595 370) translate(24 24)"/>
                        <g filter="url(#etr4vd5t3a)" transform="translate(-619 -394) translate(595 370) translate(24 24)">
                            <g>
                                <path fill="#FFF" d="M18.462 15.405l-5.617 8.062-5.808-8.062 5.808 3.417 5.617-3.417zM12.81 2.133l6.503 11.06-6.503 4.041-6.504-4.04 6.504-11.06z" transform="translate(8.408 8.533)"/>
                            </g>
                        </g>
                    </g>
                </g>
            </g>
        </g>
    </g>
</svg>
