<svg xmlns="http://www.w3.org/2000/svg" width="64" height="64" viewBox="0 0 64 64">
    <defs>
        <filter id="znz0it237a">
            <feColorMatrix in="SourceGraphic" values="0 0 0 0 0.317647 0 0 0 0 0.619608 0 0 0 0 0.486275 0 0 0 1.000000 0"/>
        </filter>
    </defs>
    <g fill="none" fill-rule="evenodd">
        <g>
            <g>
                <g>
                    <g transform="translate(-344 -394) translate(320 370) translate(24 24) translate(22 21)">
                        <ellipse cx="21.021" cy="21.333" fill="#FFF" rx="21.021" ry="21.333"/>
                        <ellipse cx="21.021" cy="21.333" fill="#FFF" stroke="#D7D7D7" rx="20.521" ry="20.833"/>
                        <g>
                            <g>
                                <g>
                                    <path fill="#E2223B" d="M10.51 0c2.896 0 5.518 1.188 7.419 3.11L15.142 5.94C13.954 4.74 12.318 4 10.51 4c-3.628 0-6.57 2.985-6.57 6.667s2.942 6.666 6.57 6.666c1.807 0 3.443-.74 4.63-1.938l2.788 2.828c-1.901 1.922-4.523 3.11-7.418 3.11C4.706 21.333 0 16.558 0 10.667S4.706 0 10.51 0z" transform="translate(10.51 10.667)"/>
                                    <path fill="#372D88" fill-rule="nonzero" d="M19.496 5.13c.968 1.614 1.525 3.509 1.525 5.537 0 2.027-.557 3.923-1.525 5.537l-5.456-5.537z" transform="translate(10.51 10.667)"/>
                                </g>
                            </g>
                        </g>
                    </g>
                    <g>
                        <g fill="#FFF" stroke="#D7D7D7" transform="translate(-344 -394) translate(320 370) translate(24 24)">
                            <ellipse cx="21.021" cy="21.333" rx="20.521" ry="20.833"/>
                        </g>
                        <g filter="url(#znz0it237a)" transform="translate(-344 -394) translate(320 370) translate(24 24)">
                            <g>
                                <path fill="#FFF" d="M14.75 9.799V7.185h5.887V3.2H4.6v3.985h5.888V9.8c-4.787.221-8.385 1.185-8.385 2.336 0 1.15 3.598 2.114 8.385 2.341v8.374h4.262v-8.374c4.777-.227 8.374-1.185 8.374-2.341 0-1.151-3.597-2.11-8.374-2.336zm0 3.968v-.005c-.123.011-.738.045-2.112.045-1.1 0-1.877-.028-2.145-.045v.005c-4.235-.192-7.39-.94-7.39-1.836 0-.89 3.155-1.639 7.39-1.832v2.92c.273.023 1.067.068 2.162.068 1.312 0 1.972-.057 2.094-.068V10.1c4.224.193 7.374.942 7.374 1.832 0 .895-3.15 1.644-7.374 1.83v.006z" transform="translate(8.408 8.533)"/>
                            </g>
                        </g>
                    </g>
                </g>
            </g>
        </g>
    </g>
</svg>
