<svg xmlns="http://www.w3.org/2000/svg" width="64" height="64" viewBox="0 0 64 64">
    <defs>
        <filter id="45hsuudi7a">
            <feColorMatrix in="SourceGraphic" values="0 0 0 0 0.211765 0 0 0 0 0.086275 0 0 0 0 0.721569 0 0 0 1.000000 0"/>
        </filter>
        <filter id="vcz8bmvt9b">
            <feColorMatrix in="SourceGraphic" values="0 0 0 0 0.317647 0 0 0 0 0.619608 0 0 0 0 0.486275 0 0 0 1.000000 0"/>
        </filter>
    </defs>
    <g fill="none" fill-rule="evenodd">
        <g>
            <g>
                <g>
                    <g>
                        <path fill="#FFF" stroke="#D7D7D7" d="M25.981 1.123C20.486-.267 14.956.735 10.457 3.48c-4.502 2.746-7.971 7.235-9.342 12.815-1.372 5.582-.384 11.199 2.321 15.77 2.704 4.567 7.124 8.088 12.62 9.48 5.497 1.39 11.028.388 15.528-2.355 4.503-2.745 7.973-7.234 9.344-12.814 1.371-5.583.383-11.201-2.323-15.772-2.705-4.568-7.126-8.09-12.624-9.48z" transform="translate(-894 -394) translate(870 370) translate(24 24) translate(22 21)"/>
                        <g filter="url(#45hsuudi7a)" transform="translate(-894 -394) translate(870 370) translate(24 24) translate(22 21)">
                            <g>
                                <path fill="#FFF" d="M18.462 15.405l-5.617 8.062-5.808-8.062 5.808 3.417 5.617-3.417zM12.81 2.133l6.503 11.06-6.503 4.041-6.504-4.04 6.504-11.06z" transform="translate(8.408 8.533)"/>
                            </g>
                        </g>
                    </g>
                    <g>
                        <g fill="#FFF" stroke="#D7D7D7" transform="translate(-894 -394) translate(870 370) translate(24 24)">
                            <ellipse cx="21.021" cy="21.333" rx="20.521" ry="20.833"/>
                        </g>
                        <g filter="url(#vcz8bmvt9b)" transform="translate(-894 -394) translate(870 370) translate(24 24)">
                            <g>
                                <path fill="#FFF" d="M14.75 9.799V7.185h5.887V3.2H4.6v3.985h5.888V9.8c-4.787.221-8.385 1.185-8.385 2.336 0 1.15 3.598 2.114 8.385 2.341v8.374h4.262v-8.374c4.777-.227 8.374-1.185 8.374-2.341 0-1.151-3.597-2.11-8.374-2.336zm0 3.968v-.005c-.123.011-.738.045-2.112.045-1.1 0-1.877-.028-2.145-.045v.005c-4.235-.192-7.39-.94-7.39-1.836 0-.89 3.155-1.639 7.39-1.832v2.92c.273.023 1.067.068 2.162.068 1.312 0 1.972-.057 2.094-.068V10.1c4.224.193 7.374.942 7.374 1.832 0 .895-3.15 1.644-7.374 1.83v.006z" transform="translate(8.408 8.533)"/>
                            </g>
                        </g>
                    </g>
                </g>
            </g>
        </g>
    </g>
</svg>
